<svg xmlns="http://www.w3.org/2000/svg" version="1.1" xmlns:xlink="http://www.w3.org/1999/xlink" xmlns:svgjs="http://svgjs.dev/svgjs" width="2000" height="383" viewBox="0 0 2000 383"><g transform="matrix(1,0,0,1,-1.212121156465173,0.3726602541967736)"><svg viewBox="0 0 396 76" data-background-color="#ffffff" preserveAspectRatio="xMidYMid meet" height="383" width="2000" xmlns="http://www.w3.org/2000/svg" xmlns:xlink="http://www.w3.org/1999/xlink"><g id="tight-bounds" transform="matrix(1,0,0,1,0.24000001101990165,-0.07394824887455798)"><svg viewBox="0 0 395.52 76.1478964977491" height="76.1478964977491" width="395.52"><g><svg viewBox="0 0 536.0711629214147 103.20765430210326" height="76.1478964977491" width="395.52"><g><rect width="8.979616763398852" height="100.07109751434032" x="419.0268501659656" y="1.5682783938814708" fill="#276363" opacity="1" stroke-width="0" stroke="transparent" fill-opacity="1" class="rect-o-0" data-fill-palette-color="primary" rx="1%" id="o-0" data-palette-color="#276363"></rect></g><g transform="matrix(1,0,0,1,0,1.8172114722753463)"><svg viewBox="0 0 395.52 99.57323135755257" height="99.57323135755257" width="395.52"><g><svg viewBox="0 0 395.52 99.57323135755257" height="99.57323135755257" width="395.52"><g><svg viewBox="0 0 395.52 99.57323135755257" height="99.57323135755257" width="395.52"><g transform="matrix(1,0,0,1,0,0)"><svg width="395.52" viewBox="0.800000011920929 -39 157.83999633789062 39.5" height="99.57323135755257" data-palette-color="#276363"><g class="undefined-text-0" data-fill-palette-color="primary" id="text-0"><path d="M36.1-11.75L35.5 0 0.8 0 0.8-0.2 27.1-36.4 13.4-36.4Q9.85-36.4 8.1-34.8 6.35-33.2 5.65-29.3L5.65-29.3 3.8-29.3 4.55-38.5 35-38.5 35-38.3 8.95-2.3 24.45-2.3Q27-2.3 28.65-2.68 30.3-3.05 31.33-4.1 32.35-5.15 32.93-6.98 33.5-8.8 33.95-11.75L33.95-11.75 36.1-11.75ZM51.5-35.5L51.5-21.15Q54.2-21.15 56.02-21.48 57.85-21.8 58.92-22.5 60-23.2 60.47-24.3 60.95-25.4 60.95-26.9L60.95-26.9 62.7-26.9 62.7-13.25 60.95-13.25Q60.95-14.75 60.52-15.85 60.1-16.95 59.02-17.68 57.95-18.4 56.12-18.78 54.3-19.15 51.5-19.15L51.5-19.15 51.5-7.85Q51.5-6.2 51.9-5.13 52.3-4.05 53.27-3.38 54.25-2.7 55.85-2.43 57.45-2.15 59.8-2.15L59.8-2.15Q62.45-2.15 64.3-2.53 66.15-2.9 67.4-3.8 68.65-4.7 69.4-6.18 70.15-7.65 70.65-9.85L70.65-9.85 72.55-9.85 71.8 0 40.75 0 40.75-1.9Q42.5-1.95 43.57-2.2 44.65-2.45 45.25-3.05 45.85-3.65 46.05-4.75 46.25-5.85 46.25-7.6L46.25-7.6 46.25-30.9Q46.25-32.65 46.07-33.73 45.9-34.8 45.37-35.43 44.85-36.05 43.85-36.27 42.85-36.5 41.25-36.6L41.25-36.6 41.25-38.5 70.15-38.5 70.6-29.7 68.85-29.7Q68.55-31.7 67.87-32.98 67.2-34.25 66.02-35 64.85-35.75 63.05-36.05 61.25-36.35 58.7-36.35L58.7-36.35 52.35-36.35Q51.5-36.35 51.5-35.5L51.5-35.5ZM107.7-28.85L107.7-28.85Q107.7-24.85 105.3-22.2 102.9-19.55 97.65-18.65L97.65-18.65 108.7-5.35Q110.05-3.7 111.67-2.98 113.3-2.25 115.55-1.9L115.55-1.9 115.55 0 105.9 0 93.65-15.7Q93-16.55 92.42-17.05 91.85-17.55 91.22-17.82 90.6-18.1 89.77-18.18 88.95-18.25 87.8-18.25L87.8-18.25 87.8-7.85Q87.8-6 88.02-4.83 88.25-3.65 88.97-3 89.7-2.35 91.07-2.13 92.45-1.9 94.7-1.9L94.7-1.9 94.7 0 77.05 0 77.05-1.9Q78.8-1.95 79.87-2.2 80.95-2.45 81.55-3.05 82.15-3.65 82.35-4.75 82.55-5.85 82.55-7.6L82.55-7.6 82.55-30.9Q82.55-32.65 82.37-33.73 82.2-34.8 81.67-35.43 81.15-36.05 80.15-36.27 79.15-36.5 77.55-36.6L77.55-36.6 77.55-38.5 93.25-38.5Q100.15-38.5 103.92-35.95 107.7-33.4 107.7-28.85ZM87.8-35.3L87.8-20.75 91.35-20.75Q96.35-20.75 98.77-22.58 101.2-24.4 101.2-28.6L101.2-28.6Q101.2-32.65 99.27-34.4 97.35-36.15 93.25-36.15L93.25-36.15 88.65-36.15Q87.8-36.15 87.8-35.3L87.8-35.3ZM137.84-39L137.84-39Q142.24-39 146.04-37.45 149.84-35.9 152.64-33.2 155.44-30.5 157.04-26.85 158.64-23.2 158.64-18.95L158.64-18.95Q158.64-14.9 157.02-11.35 155.39-7.8 152.59-5.18 149.79-2.55 145.99-1.03 142.19 0.5 137.84 0.5L137.84 0.5Q133.49 0.5 129.69-1.03 125.89-2.55 123.09-5.18 120.29-7.8 118.67-11.35 117.04-14.9 117.04-18.95L117.04-18.95Q117.04-23.2 118.64-26.85 120.24-30.5 123.04-33.2 125.84-35.9 129.64-37.45 133.44-39 137.84-39ZM137.84-2.25L137.84-2.25Q141.14-2.25 143.77-3.4 146.39-4.55 148.27-6.7 150.14-8.85 151.14-11.93 152.14-15 152.14-18.8L152.14-18.8Q152.14-22.8 151.14-26.03 150.14-29.25 148.29-31.53 146.44-33.8 143.79-35.02 141.14-36.25 137.84-36.25L137.84-36.25Q134.54-36.25 131.89-35.02 129.24-33.8 127.39-31.53 125.54-29.25 124.54-26.03 123.54-22.8 123.54-18.8L123.54-18.8Q123.54-15 124.54-11.93 125.54-8.85 127.39-6.7 129.24-4.55 131.89-3.4 134.54-2.25 137.84-2.25Z" fill="#276363" data-fill-palette-color="primary"></path></g></svg></g></svg></g></svg></g></svg></g><g transform="matrix(1,0,0,1,451.51331709533,0)"><svg viewBox="0 0 84.55784582608474 103.20765430210326" height="103.20765430210326" width="84.55784582608474"><g><svg xmlns="http://www.w3.org/2000/svg" xmlns:xlink="http://www.w3.org/1999/xlink" version="1.1" x="0" y="0" viewBox="26.299999237060547 21.299999237060547 46.70000076293945 57.000003814697266" enable-background="new 0 0 100 100" xml:space="preserve" height="103.20765430210326" width="84.55784582608474" class="icon-icon-0" data-fill-palette-color="accent" id="icon-0"><g fill="#6f7783" data-fill-palette-color="accent"><polygon points="73,78.3 26.3,78.3 47.9,49.8 26.3,21.3 73,21.3 73,32.3 67,32.3 67,27.3 38.4,27.3 55.4,49.8 38.4,72.3 67,72.3    67,67.3 73,67.3  " fill="#6f7783" data-fill-palette-color="accent"></polygon></g></svg></g></svg></g></svg></g><defs></defs></svg><rect width="395.52" height="76.1478964977491" fill="none" stroke="none" visibility="hidden"></rect></g></svg></g></svg>